<svg xmlns="http://www.w3.org/2000/svg" version="1.1" xmlns:xlink="http://www.w3.org/1999/xlink" xmlns:svgjs="http://svgjs.com/svgjs" width="1440" height="560" preserveAspectRatio="none" viewBox="0 0 1440 560"><g mask="url(&quot;#SvgjsMask1087&quot;)" fill="none"><rect width="1440" height="560" x="0" y="0" fill="#0e2a47"></rect><path d="M82.31 37.09L134.28 67.09L134.28 127.09L82.31 157.09L30.35 127.09L30.35 67.09zM82.31 217.09L134.28 247.09L134.28 307.09L82.31 337.09L30.35 307.09L30.35 247.09zM82.31 397.09L134.28 427.09L134.28 487.09L82.31 517.09L30.35 487.09L30.35 427.09zM134.28 127.09L186.24 157.09L186.24 217.09L134.28 247.09L82.31 217.09L82.31 157.09zM394.09 37.09L446.05 67.09L446.05 127.09L394.09 157.09L342.13 127.09L342.13 67.09zM394.09 217.09L446.05 247.09L446.05 307.09L394.09 337.09L342.13 307.09L342.13 247.09zM653.91 307.09L705.87 337.09L705.87 397.09L653.91 427.09L601.94 397.09L601.94 337.09zM809.79 397.09L861.76 427.09L861.76 487.09L809.79 517.09L757.83 487.09L757.83 427.09zM757.83 487.09L809.79 517.09L809.79 577.09L757.83 607.09L705.87 577.09L705.87 517.09zM861.76 -52.91L913.72 -22.91L913.72 37.09L861.76 67.09L809.8 37.09L809.8 -22.91zM861.76 307.09L913.72 337.09L913.72 397.09L861.76 427.09L809.8 397.09L809.8 337.09zM965.68 127.09L1017.65 157.09L1017.65 217.09L965.68 247.09L913.72 217.09L913.72 157.09zM1017.65 397.09L1069.61 427.09L1069.61 487.09L1017.65 517.09L965.68 487.09L965.68 427.09zM1069.61 -52.91L1121.57 -22.91L1121.57 37.09L1069.61 67.09L1017.65 37.09L1017.65 -22.91zM1069.61 127.09L1121.57 157.09L1121.57 217.09L1069.61 247.09L1017.65 217.09L1017.65 157.09zM1069.61 307.09L1121.57 337.09L1121.57 397.09L1069.61 427.09L1017.65 397.09L1017.65 337.09zM1277.46 487.09L1329.42 517.09L1329.42 577.09L1277.46 607.09L1225.5 577.09L1225.5 517.09z" stroke="rgba(255, 25, 90, 1)" stroke-width="2"></path><path d="M104.2 69.37L189.94 118.87L189.94 217.87L104.2 267.37L18.46 217.87L18.46 118.87zM189.94 -79.13L275.68 -29.63L275.68 69.37L189.94 118.87L104.2 69.37L104.2 -29.63zM447.15 69.37L532.89 118.87L532.89 217.87L447.15 267.37L361.42 217.87L361.42 118.87zM447.15 366.37L532.89 415.87L532.89 514.87L447.15 564.37L361.42 514.87L361.42 415.87zM361.42 514.87L447.15 564.37L447.15 663.37L361.42 712.87L275.68 663.37L275.68 564.37zM618.63 69.37L704.37 118.87L704.37 217.87L618.63 267.37L532.89 217.87L532.89 118.87zM532.89 217.87L618.63 267.37L618.63 366.37L532.89 415.87L447.15 366.37L447.15 267.37zM532.89 514.87L618.63 564.37L618.63 663.37L532.89 712.87L447.15 663.37L447.15 564.37zM704.37 -79.13L790.11 -29.63L790.11 69.37L704.37 118.87L618.63 69.37L618.63 -29.63zM790.11 366.37L875.85 415.87L875.85 514.87L790.11 564.37L704.37 514.87L704.37 415.87zM875.85 -79.13L961.59 -29.63L961.59 69.37L875.85 118.87L790.11 69.37L790.11 -29.63zM1047.33 217.87L1133.07 267.37L1133.07 366.37L1047.33 415.87L961.59 366.37L961.59 267.37zM1218.81 -79.13L1304.54 -29.63L1304.54 69.37L1218.81 118.87L1133.07 69.37L1133.07 -29.63zM1476.02 69.37L1561.76 118.87L1561.76 217.87L1476.02 267.37L1390.28 217.87L1390.28 118.87zM1390.28 514.87L1476.02 564.37L1476.02 663.37L1390.28 712.87L1304.54 663.37L1304.54 564.37z" stroke="#03305d" stroke-width="2"></path><path d="M86.52 74.71L159.27 116.71L159.27 200.71L86.52 242.71L13.77 200.71L13.77 116.71zM232.01 74.71L304.76 116.71L304.76 200.71L232.01 242.71L159.27 200.71L159.27 116.71zM159.27 452.71L232.01 494.71L232.01 578.71L159.27 620.71L86.52 578.71L86.52 494.71zM814 74.71L886.75 116.71L886.75 200.71L814 242.71L741.25 200.71L741.25 116.71zM886.75 200.71L959.5 242.71L959.5 326.71L886.75 368.71L814 326.71L814 242.71zM1104.99 326.71L1177.74 368.71L1177.74 452.71L1104.99 494.71L1032.24 452.71L1032.24 368.71zM1177.74 200.71L1250.49 242.71L1250.49 326.71L1177.74 368.71L1104.99 326.71L1104.99 242.71z" stroke="rgba(0, 123, 250, 0.93)" stroke-width="2"></path></g><defs><mask id="SvgjsMask1087"><rect width="1440" height="560" fill="#ffffff"></rect></mask></defs></svg>